<svg width="16" height="17" viewBox="0 0 16 17" fill="none" xmlns="http://www.w3.org/2000/svg">
<path d="M13.875 12.875H3.125V3.125C3.125 3.05625 3.06875 3 3 3H2.125C2.05625 3 2 3.05625 2 3.125V13.875C2 13.9438 2.05625 14 2.125 14H13.875C13.9438 14 14 13.9438 14 13.875V13C14 12.9312 13.9438 12.875 13.875 12.875ZM4.25 11.875H12.625C12.6938 11.875 12.75 11.8188 12.75 11.75V4.9375C12.75 4.825 12.6141 4.77031 12.5359 4.84844L9.25 8.13438L7.29063 6.19688C7.26713 6.17361 7.23541 6.16056 7.20234 6.16056C7.16928 6.16056 7.13756 6.17361 7.11406 6.19688L4.16094 9.15938C4.14947 9.17087 4.14039 9.18451 4.13422 9.19953C4.12805 9.21455 4.12492 9.23064 4.125 9.24687V11.75C4.125 11.8188 4.18125 11.875 4.25 11.875Z" />
<path d="M13.875 12.875H3.125V3.125C3.125 3.05625 3.06875 3 3 3H2.125C2.05625 3 2 3.05625 2 3.125V13.875C2 13.9438 2.05625 14 2.125 14H13.875C13.9438 14 14 13.9438 14 13.875V13C14 12.9312 13.9438 12.875 13.875 12.875ZM4.25 11.875H12.625C12.6938 11.875 12.75 11.8188 12.75 11.75V4.9375C12.75 4.825 12.6141 4.77031 12.5359 4.84844L9.25 8.13438L7.29063 6.19688C7.26713 6.17361 7.23541 6.16056 7.20234 6.16056C7.16928 6.16056 7.13756 6.17361 7.11406 6.19688L4.16094 9.15938C4.14947 9.17087 4.14039 9.18451 4.13422 9.19953C4.12805 9.21455 4.12492 9.23064 4.125 9.24687V11.75C4.125 11.8188 4.18125 11.875 4.25 11.875Z" />
</svg>
