<svg width="16" height="17" viewBox="0 0 16 17" fill="none" xmlns="http://www.w3.org/2000/svg">
<path d="M14.7889 8.39059L8.35293 1.95934C8.30659 1.91291 8.25155 1.87607 8.19095 1.85094C8.13036 1.8258 8.0654 1.81287 7.9998 1.81287C7.93421 1.81287 7.86925 1.8258 7.80866 1.85094C7.74806 1.87607 7.69302 1.91291 7.64668 1.95934L1.21074 8.39059C1.02324 8.57809 0.916992 8.83278 0.916992 9.0984C0.916992 9.64996 1.36543 10.0984 1.91699 10.0984H2.59512V14.6875C2.59512 14.964 2.81855 15.1875 3.09512 15.1875H6.9998V11.6875H8.7498V15.1875H12.9045C13.1811 15.1875 13.4045 14.964 13.4045 14.6875V10.0984H14.0826C14.3482 10.0984 14.6029 9.99371 14.7904 9.80465C15.1795 9.41403 15.1795 8.78121 14.7889 8.39059V8.39059Z"/>
</svg>
