<svg width="16" height="17" viewBox="0 0 16 17" fill="none" xmlns="http://www.w3.org/2000/svg">
<path d="M13.9645 4.54004L8.18672 1.87338C8.12822 1.8463 8.06452 1.83228 8.00005 1.83228C7.93559 1.83228 7.87189 1.8463 7.81339 1.87338L2.03561 4.54004C1.95846 4.57575 1.89318 4.63282 1.84749 4.70451C1.8018 4.77619 1.77762 4.85948 1.77783 4.94449V12.5C1.77762 12.585 1.8018 12.6683 1.84749 12.74C1.89318 12.8117 1.95846 12.8688 2.03561 12.9045L7.81339 15.5712C7.87189 15.5982 7.93559 15.6123 8.00005 15.6123C8.06452 15.6123 8.12822 15.5982 8.18672 15.5712L13.9645 12.9045C14.0416 12.8688 14.1069 12.8117 14.1526 12.74C14.1983 12.6683 14.2225 12.585 14.2223 12.5V4.94449C14.2225 4.85948 14.1983 4.77619 14.1526 4.70451C14.1069 4.63282 14.0416 4.57575 13.9645 4.54004ZM8.00005 7.12226L3.2845 4.94449L8.00005 2.76671L12.7156 4.94449L8.00005 7.12226ZM13.3334 12.2156L8.4445 14.4734V7.8956L13.3334 5.63782V12.2156Z" />
</svg>
